<?xml version="1.0" encoding="UTF-8" standalone="no"?>
<!-- Created with Inkscape (http://www.inkscape.org/) -->

<svg
   xmlns:dc="http://purl.org/dc/elements/1.1/"
   xmlns:cc="http://creativecommons.org/ns#"
   xmlns:rdf="http://www.w3.org/1999/02/22-rdf-syntax-ns#"
   xmlns:svg="http://www.w3.org/2000/svg"
   xmlns="http://www.w3.org/2000/svg"
   xmlns:sodipodi="http://sodipodi.sourceforge.net/DTD/sodipodi-0.dtd"
   xmlns:inkscape="http://www.inkscape.org/namespaces/inkscape"
   id="svg2"
   version="1.1"
   inkscape:version="0.47 r22583"
   width="450"
   height="130"
   xml:space="preserve"
   sodipodi:docname="BDO_Logo.svg"><metadata
     id="metadata8"><rdf:RDF><cc:Work
         rdf:about=""><dc:format>image/svg+xml</dc:format><dc:type
           rdf:resource="http://purl.org/dc/dcmitype/StillImage" /><dc:title /></cc:Work></rdf:RDF></metadata><defs
     id="defs6"><inkscape:perspective
       sodipodi:type="inkscape:persp3d"
       inkscape:vp_x="0 : 0.5 : 1"
       inkscape:vp_y="0 : 1000 : 0"
       inkscape:vp_z="1 : 0.5 : 1"
       inkscape:persp3d-origin="0.5 : 0.33333333 : 1"
       id="perspective10" /></defs><sodipodi:namedview
     pagecolor="#ffffff"
     bordercolor="#666666"
     borderopacity="1"
     objecttolerance="10"
     gridtolerance="10"
     guidetolerance="10"
     inkscape:pageopacity="0"
     inkscape:pageshadow="2"
     inkscape:window-width="1366"
     inkscape:window-height="753"
     id="namedview4"
     showgrid="false"
     inkscape:zoom="2"
     inkscape:cx="212.01974"
     inkscape:cy="73.033262"
     inkscape:window-x="0"
     inkscape:window-y="0"
     inkscape:window-maximized="1"
     inkscape:current-layer="g12" /><g
     id="g12"
     inkscape:groupmode="layer"
     inkscape:label="BDO_Logo"
     transform="matrix(1.25,0,0,-1.25,-153.8115,454.798)"><g
       id="g14"
       transform="matrix(0.12,0,0,0.12,2.2782,2.92)"><path
         d="m 1293.88,2386.45 0.031,0 0,0 -0.031,0 z"
         style="fill:#231f20;fill-opacity:1;fill-rule:nonzero;stroke:none"
         id="path16" /><path
         d="m 1857.86,2386.45 0,0.01 0,-0.01"
         style="fill:#231f20;fill-opacity:1;fill-rule:nonzero;stroke:none"
         id="path18" /><path
         d="m 1413.11,2885.56 124.94,0 c 34.29,0 77.7,-8.18 77.7,-66.41 0,-58.26 -62.09,-82.02 -108.11,-82.02 l -94.53,0 0,148.43 z m 0,-227.58 71.16,0 c 116.98,0 176.59,-25.56 176.59,-93.98 0,-60.71 -47.81,-86.37 -122.81,-86.37 -19.59,0 -87.22,0 -113.9,0 l -130.24,-91.18 0,0 243.26,0.06 c 145.67,0 243.74,52.42 243.74,173.79 0,105.88 -86.82,147.44 -164.25,147.44 53.53,0 116.79,47.99 116.79,129.33 0,81.31 -74.41,139.73 -159.19,139.73 l -302.15,0 21.8,-48.37 0,-499.5 119.2,83.47 0,145.58"
         style="fill:#293d9b;fill-opacity:1;fill-rule:nonzero;stroke:none"
         id="path20" /><path
         d="m 1977.07,2885.56 81.19,0 c 33.52,0 204.34,-8.46 204.34,-203.95 0,-223.05 -204.34,-203.95 -204.34,-203.95 l -70.09,0 -130.31,-91.2 0,-0.01 233.92,0 c 145.65,0 295,89.59 295,295.16 0,182.27 -130.42,295.19 -295,295.19 l -255.67,0 21.75,-48.37 0,-499.5 119.21,83.47 0,373.16"
         style="fill:#293d9b;fill-opacity:1;fill-rule:nonzero;stroke:none"
         id="path22" /><path
         d="m 2566.03,2681.61 c 0,166.93 115.02,213.84 189.54,213.84 74.48,0 189.51,-46.91 189.51,-213.84 0,-166.92 -115.03,-213.81 -189.51,-213.81 -74.52,0 -189.54,46.89 -189.54,213.81 z m -124.17,0 c 0,-235.53 190.35,-301.69 313.71,-301.69 123.32,0 313.69,66.16 313.69,301.69 0,235.56 -190.37,301.71 -313.69,301.71 -123.36,0 -313.71,-66.15 -313.71,-301.71"
         style="fill:#293d9b;fill-opacity:1;fill-rule:nonzero;stroke:none"
         id="path24" /><path
         d="m 1025.41,2976.8 0,-735.9 116.45,81.52 0,654.38 -116.45,0"
         style="fill:#ed1639;fill-opacity:1;fill-rule:nonzero;stroke:none"
         id="path26" /><path
         d="m 1163.61,2295.18 -138.2,-96.72 2037.31,0 0,96.72 -1899.11,0"
         style="fill:#ed1639;fill-opacity:1;fill-rule:nonzero;stroke:none"
         id="path28" /><path
         d="m 3243.42,2288.73 -60.09,0 -8.68,29.47 124.3,0 -72.21,-121.1 70.84,0 0,-29.47 -128.19,0 74.03,121.1"
         style="fill:#293d9b;fill-opacity:1;fill-rule:nonzero;stroke:none"
         id="path30" /><path
         d="m 3312.16,2275.69 34.51,0 0,-108.06 -34.51,0 0,108.06 z m -3.2,32.69 c 0,10.74 8.92,19.64 20.57,19.64 11.65,0 20.57,-8.45 20.57,-19.64 0,-10.75 -8.92,-19.89 -20.57,-19.89 -11.65,0 -20.57,8.69 -20.57,19.89"
         style="fill:#293d9b;fill-opacity:1;fill-rule:nonzero;stroke:none"
         id="path32" /><path
         d="m 3358.07,2275.69 34.5,0 23.31,-64.89 0.46,0 23.31,64.89 34.5,0 -45.7,-108.75 -24.68,0 -45.7,108.75"
         style="fill:#293d9b;fill-opacity:1;fill-rule:nonzero;stroke:none"
         id="path34" /><path
         d="m 3539.69,2318.2 34.96,0 0,-59.19 64.67,0 0,59.19 34.95,0 0,-150.57 -34.95,0 0,61.68 -64.67,0 0,-61.68 -34.96,0 0,150.57"
         style="fill:#293d9b;fill-opacity:1;fill-rule:nonzero;stroke:none"
         id="path36" /><path
         d="m 3750.3,2215.38 c -5.48,-0.23 -9.82,-1.15 -12.78,-2.97 -3.2,-2.07 -4.81,-4.81 -4.81,-9.37 0,-7.55 5.26,-11.2 13.49,-11.2 7.53,0 13.25,2.28 15.76,3.89 l 0,20.1 -11.66,-0.45 z m 14.86,-38.63 c -7.31,-6.39 -16.68,-11.43 -30.16,-11.43 -21.25,0 -36.79,14.64 -36.79,35.43 0,14.63 6.86,23.53 18.06,29.48 7.76,4.1 17.59,6.16 28.55,6.62 l 17.14,0.69 0,1.14 c 0,10.05 -7.3,14.16 -18.96,14.16 -9.14,0 -19.65,-2.51 -27.43,-6.63 l -10.73,21.72 c 12.79,6.39 27.42,10.51 44.56,10.51 33.36,0 47.06,-14.86 47.06,-41.12 l 0,-48.45 c 0,-6.64 0,-15.31 1.84,-21.24 l -28.34,0 -4.8,9.12"
         style="fill:#293d9b;fill-opacity:1;fill-rule:nonzero;stroke:none"
         id="path38" /><path
         d="m 3829.34,2249.2 -17.37,0 0,26.49 17.37,0 0,12.35 c 0,24.44 13.71,41.36 40.44,41.36 8.46,0 18.05,-1.61 26.74,-5.72 l -6.63,-27.19 c -5.26,1.83 -10.28,3.19 -14.39,3.19 -7.78,0 -11.66,-4.33 -11.66,-11.64 l 0,-12.35 28.79,0 -7.77,-26.49 -21.02,0 0,-81.57 -34.5,0 0,81.57"
         style="fill:#293d9b;fill-opacity:1;fill-rule:nonzero;stroke:none"
         id="path40" /><path
         d="m 3917.52,2197.1 0,52.1 -20.34,0 0,26.49 20.34,0 0,25.6 34.5,9.82 0,-35.42 32.9,0 -7.76,-26.49 -25.14,0 0,-42.97 c 0,-10.28 3.2,-13.71 10.05,-13.71 5.72,0 11.66,2.05 15.77,4.58 l 9.6,-23.31 c -8.45,-5.72 -23.53,-8.47 -34.5,-8.47 -21.72,0 -35.42,12.12 -35.42,31.78"
         style="fill:#293d9b;fill-opacity:1;fill-rule:nonzero;stroke:none"
         id="path42" /></g></g></svg>