<?xml version="1.0" encoding="UTF-8" standalone="no"?>
<!-- Created with Inkscape (http://www.inkscape.org/) -->

<svg
   xmlns:dc="http://purl.org/dc/elements/1.1/"
   xmlns:cc="http://creativecommons.org/ns#"
   xmlns:rdf="http://www.w3.org/1999/02/22-rdf-syntax-ns#"
   xmlns:svg="http://www.w3.org/2000/svg"
   xmlns="http://www.w3.org/2000/svg"
   xmlns:sodipodi="http://sodipodi.sourceforge.net/DTD/sodipodi-0.dtd"
   xmlns:inkscape="http://www.inkscape.org/namespaces/inkscape"
   width="480"
   height="720"
   id="svg2"
   sodipodi:version="0.32"
   inkscape:version="0.47 r22583"
   version="1.0"
   sodipodi:docname="Symbol.svg"
   inkscape:output_extension="org.inkscape.output.svg.inkscape">
  <defs
     id="defs4">
    <inkscape:perspective
       sodipodi:type="inkscape:persp3d"
       inkscape:vp_x="0 : 526.18109 : 1"
       inkscape:vp_y="0 : 1000 : 0"
       inkscape:vp_z="744.09448 : 526.18109 : 1"
       inkscape:persp3d-origin="372.04724 : 350.78739 : 1"
       id="perspective10" />
    <inkscape:perspective
       id="perspective2484"
       inkscape:persp3d-origin="372.04724 : 350.78739 : 1"
       inkscape:vp_z="744.09448 : 526.18109 : 1"
       inkscape:vp_y="0 : 1000 : 0"
       inkscape:vp_x="0 : 526.18109 : 1"
       sodipodi:type="inkscape:persp3d" />
  </defs>
  <sodipodi:namedview
     id="base"
     pagecolor="#ffffff"
     bordercolor="#666666"
     borderopacity="1.0"
     gridtolerance="10000"
     guidetolerance="10"
     objecttolerance="10"
     inkscape:pageopacity="0.0"
     inkscape:pageshadow="2"
     inkscape:zoom="0.5"
     inkscape:cx="376.74946"
     inkscape:cy="515.98712"
     inkscape:document-units="px"
     inkscape:current-layer="layer1"
     showgrid="false"
     showguides="true"
     inkscape:guide-bbox="true"
     inkscape:window-width="1366"
     inkscape:window-height="753"
     inkscape:window-x="0"
     inkscape:window-y="0"
     inkscape:window-maximized="1" />
  <metadata
     id="metadata7">
    <rdf:RDF>
      <cc:Work
         rdf:about="">
        <dc:format>image/svg+xml</dc:format>
        <dc:type
           rdf:resource="http://purl.org/dc/dcmitype/StillImage" />
      </cc:Work>
    </rdf:RDF>
  </metadata>
  <g
     inkscape:label="Layer 1"
     inkscape:groupmode="layer"
     id="layer1"
     transform="translate(-116.40945,-134.06592)">
    <path
       style="fill:#317eac;fill-opacity:1"
       d="M 337.14382,843.41123 C 336.42482,838.30785 335.15082,828.38619 334.31252,821.36309 L 332.78852,808.59381 L 317.55172,803.54852 C 308.59432,800.38219 302.82212,798.94832 303.26392,798.80216 C 303.57132,798.70046 297.37672,808.35026 291.30552,817.9402 C 285.29162,827.4396 279.32932,835.21183 278.05602,835.21183 C 275.71592,835.21183 254.41002,824.86634 254.41002,823.73008 C 254.41002,823.39223 256.80552,814.90771 259.73332,804.87559 C 262.66122,794.84348 265.07692,785.44354 265.10172,783.98688 C 265.12652,782.53021 260.22802,777.42934 254.21622,772.65161 L 243.28563,763.96483 L 224.69005,776.81868 L 206.09447,789.6725 L 198.93931,782.75655 C 192.88398,776.90366 187.86214,771.13583 188.10499,771.3237 C 188.09783,771.01157 193.85535,761.65512 200.85875,752.62501 C 207.87206,743.58212 213.61022,735.1627 213.61022,733.91517 C 213.61022,728.97132 200.17502,709.99252 196.67524,709.99252 C 194.64988,709.99252 184.58651,711.83944 174.31218,714.0968 C 164.03786,716.35416 155.6311,718.05433 155.63051,717.87497 C 155.62991,717.6956 153.75318,712.58581 151.46,706.51984 L 147.29058,695.49083 L 165.4189,682.98267 C 181.30008,674.58736 183.91532,672.62061 183.75436,672.49113 C 183.8434,672.36165 182.61679,667.54099 181.18264,659.27324 C 180.01695,652.55312 179.14867,647.53841 179.17446,647.45932 C 179.20025,647.38024 169.70751,644.22885 160.30509,641.96162 C 149.29349,639.30636 139.33638,636.18116 138.17819,635.0167 C 137.01999,633.85225 136.36638,627.17163 136.72572,620.17087 L 137.37906,607.44222 L 157.66734,604.74778 C 168.8259,603.26586 178.57767,601.3228 179.33794,600.42988 C 182.0621,597.23046 186.1248,573.42102 184.17521,572.08107 C 183.10204,571.34348 174.83421,566.05161 165.80225,560.32136 L 149.38049,549.9027 L 153.71635,538.84313 C 156.10107,532.76037 158.46817,527.10689 158.97657,526.27982 C 159.48498,525.45276 169.13112,527.13252 180.41243,530.01263 C 191.69375,532.89273 201.83321,534.68417 202.94457,533.99361 C 206.36524,531.8681 217.91036,513.99954 217.81411,510.97979 C 217.76416,509.4126 212.06398,500.91459 205.14706,492.09531 L 192.57082,476.06027 L 197.05228,469.96604 C 201.65112,463.71218 205.02079,462.1044 205.02079,466.16403 C 205.02079,467.42476 215.84015,490.81589 229.0638,518.14432 C 249.03932,559.42632 252.67592,568.44358 250.55982,571.44515 C 239.67021,586.89175 232.93643,608.89518 232.93643,629.03176 C 232.93643,669.64191 260.73822,712.33276 300.63402,732.98438 C 310.05162,737.85934 321.18252,742.94806 325.36932,744.29266 C 331.28922,746.19388 333.26172,749.41581 333.61402,749.53457 C 332.89932,748.91051 350.83562,780.74848 350.74812,780.47211 C 350.69272,780.29697 352.35972,781.66392 362.20552,762.68748 C 369.92122,747.8165 369.02352,748.74463 369.06682,748.90021 C 369.11012,749.05579 353.07732,755.28725 400.99302,736.44636 C 448.47542,717.77587 473.58512,661.61657 474.74532,641.66751 C 476.20332,616.59702 471.19262,588.74046 456.90562,570.74001 C 455.36662,568.80097 482.36052,519.46486 482.36052,519.46486 C 496.36062,491.26353 508.56942,468.18972 509.49112,468.18972 C 511.11732,468.18972 518.53492,479.48456 518.53492,481.96086 C 518.53492,482.63771 512.62602,490.09401 505.40412,498.53038 L 492.27322,513.86922 L 495.94212,520.71507 C 497.95992,524.48031 501.88702,530.4295 504.66892,533.93549 L 509.72692,540.31004 L 529.72822,533.46669 C 542.99792,528.63979 548.98612,527.1656 548.97122,527.19928 C 549.70632,527.23297 550.35762,527.62906 554.69562,538.97914 C 559.58282,551.76613 560.28882,552.36516 560.77972,553.6555 C 561.27072,554.94584 552.85803,560.70787 542.08492,566.45999 L 522.49742,576.9184 L 525.86833,592.37398 C 529.83542,607.76702 529.83012,607.5217 529.75662,607.7717 C 530.23242,608.0217 541.60822,609.44098 549.89752,610.87011 C 558.14553,612.29211 568.51002,613.17897 568.58562,613.22513 C 568.83562,613.3778 569.31462,614.00402 569.89032,626.11779 L 569.56182,640.36281 L 550.61032,642.96664 C 540.18702,644.39874 531.77803,644.4569 530.70152,645.84588 C 528.59622,648.56223 522.82962,668.8308 522.82962,674.07295 C 522.82962,675.8266 530.96303,682.39392 540.90382,688.66698 L 558.97812,700.07252 L 555.02982,707.73121 C 550.78863,715.95787 545.63342,723.23391 545.58132,723.32255 C 546.02922,723.41118 537.58032,721.31241 527.75192,718.78944 C 518.15532,716.32598 509.28242,714.31043 508.03422,714.31043 C 505.45032,714.31043 490.61933,735.64488 490.61933,739.36187 C 490.61933,740.70392 495.92862,748.48912 502.41782,756.66232 C 508.90692,764.83553 515.72162,771.78484 515.72822,773.02187 C 515.73482,774.25893 510.06072,780.14504 504.95252,785.18544 L 495.66492,794.34981 L 479.42562,781.31705 C 470.49402,774.14902 462.51162,768.28427 461.68702,768.28427 C 460.86242,768.28427 454.96732,771.92749 448.58692,776.38034 C 441.98502,780.98774 435.60732,786.61291 435.64922,786.86928 C 435.94122,786.37564 438.15282,797.01323 441.23002,807.14543 C 443.57412,814.8637 445.49932,822.68521 445.50842,824.52658 C 445.52422,827.75733 428.93742,837.37078 423.34732,837.37078 C 421.84232,837.37078 416.57282,830.3272 411.63722,821.71837 C 406.70162,813.10954 399.06322,801.62744 399.27922,801.69807 C 399.41762,801.74333 394.73102,801.55769 383.90262,803.69957 C 376.61922,805.14022 371.72272,806.65231 370.88262,807.97641 C 370.04262,809.3005 367.86682,819.61339 366.04752,830.89392 L 362.73972,851.40398 L 350.59532,852.04705 L 338.45092,852.69011 L 337.14382,843.41123 z M 347.09152,756.94976 C 344.41982,747.59562 331.43392,718.84701 220.07016,475.74605 C 167.85046,361.7533 124.63112,267.25284 124.02717,265.74502 C 123.15558,263.56899 132.50182,263.12369 169.34078,263.58607 L 215.75248,264.1686 L 251.28382,338.6525 C 312.18322,466.31516 346.06752,537.99307 350.07622,547.63556 C 356.85692,563.9454 348.97082,577.61434 415.66662,433.94763 C 436.81282,388.39742 454.11422,350.26491 454.11422,349.2087 C 454.11422,348.12422 421.52972,347.28831 379.25472,347.28831 L 304.39512,347.28831 L 287.98142,306.80793 C 278.95382,284.54372 271.57242,265.59891 271.57822,264.70834 C 271.58412,263.81777 344.54532,263.08912 433.71433,263.08912 C 522.88332,263.08912 595.83973,263.60638 595.83973,264.23859 C 595.83973,264.87079 572.88622,312.23284 544.83192,369.48758 C 516.77762,426.74232 461.93953,538.87854 422.96942,618.67919 C 383.99932,698.47983 351.43542,763.81517 350.60522,763.86882 C 349.77492,763.92247 348.19382,760.80889 347.09152,756.94976 z M 360.88742,246.68641 C 353.90192,244.98732 347.13782,242.78329 345.85592,241.78855 C 341.16102,238.14513 291.14742,215.77211 277.98972,211.42934 C 262.17652,206.2101 239.74207,205.52545 231.21927,210.00202 C 223.48602,214.06387 214.40289,223.92498 211.65262,231.24456 L 209.4218,237.18168 L 163.20049,237.18168 L 116.97917,237.18168 L 116.97917,224.37026 C 116.97917,212.01152 123.53305,191.79856 131.37576,179.96941 C 143.74595,161.31147 167.07323,145.80208 193.21033,138.85804 C 212.08462,133.84357 250.90752,134.42255 277.34512,140.11278 C 377.18922,161.60245 399.18572,162.1675 480.46962,145.33059 C 515.08322,138.16081 527.12432,136.53606 527.12432,139.0353 C 527.12432,139.67632 525.11752,144.15564 522.66482,148.98935 C 519.43022,155.36393 515.90422,158.68668 509.82792,161.08643 C 504.89222,163.03568 500.91842,166.26378 500.15542,168.94375 C 494.66642,188.22389 492.08622,192.11764 481.14842,197.62636 C 466.07172,205.2196 462.70362,208.68468 462.70362,216.60231 C 462.70362,230.2037 444.01972,240.88839 409.71953,246.90215 C 387.49412,250.79888 377.61572,250.75524 360.88742,246.68641 z"
       id="path2490"
       sodipodi:nodetypes="ccccssssssccccccsssssccccscsscccsscccsssscccsssssscsszzzscsscccccccssccccsccccssccccssssscccsscsssssssccccccsscccssscccssssssccssscccccsssssssssssc" />
  </g>
</svg>
