<?xml version="1.0" encoding="UTF-8" standalone="no"?>
<!-- Created with Inkscape (http://www.inkscape.org/) -->

<svg
   xmlns:dc="http://purl.org/dc/elements/1.1/"
   xmlns:cc="http://creativecommons.org/ns#"
   xmlns:rdf="http://www.w3.org/1999/02/22-rdf-syntax-ns#"
   xmlns:svg="http://www.w3.org/2000/svg"
   xmlns="http://www.w3.org/2000/svg"
   xmlns:sodipodi="http://sodipodi.sourceforge.net/DTD/sodipodi-0.dtd"
   xmlns:inkscape="http://www.inkscape.org/namespaces/inkscape"
   id="svg2915"
   version="1.1"
   inkscape:version="0.47 r22583"
   width="490"
   height="150"
   xml:space="preserve"
   sodipodi:docname="SBC.svg"><metadata
     id="metadata2921"><rdf:RDF><cc:Work
         rdf:about=""><dc:format>image/svg+xml</dc:format><dc:type
           rdf:resource="http://purl.org/dc/dcmitype/StillImage" /><dc:title></dc:title></cc:Work></rdf:RDF></metadata><defs
     id="defs2919"><inkscape:perspective
       sodipodi:type="inkscape:persp3d"
       inkscape:vp_x="0 : 0.5 : 1"
       inkscape:vp_y="0 : 1000 : 0"
       inkscape:vp_z="1 : 0.5 : 1"
       inkscape:persp3d-origin="0.5 : 0.33333333 : 1"
       id="perspective2923" /><clipPath
       clipPathUnits="userSpaceOnUse"
       id="clipPath2931"><path
         d="m 0,127.488 400,0 L 400,0 0,0 0,127.488 z"
         id="path2933" /></clipPath><inkscape:perspective
       id="perspective3109"
       inkscape:persp3d-origin="0.5 : 0.33333333 : 1"
       inkscape:vp_z="1 : 0.5 : 1"
       inkscape:vp_y="0 : 1000 : 0"
       inkscape:vp_x="0 : 0.5 : 1"
       sodipodi:type="inkscape:persp3d" /></defs><sodipodi:namedview
     pagecolor="#ffffff"
     bordercolor="#666666"
     borderopacity="1"
     objecttolerance="10"
     gridtolerance="10"
     guidetolerance="10"
     inkscape:pageopacity="0"
     inkscape:pageshadow="2"
     inkscape:window-width="1366"
     inkscape:window-height="753"
     id="namedview2917"
     showgrid="false"
     showguides="true"
     inkscape:guide-bbox="true"
     inkscape:zoom="1"
     inkscape:cx="270.38333"
     inkscape:cy="65.638334"
     inkscape:window-x="0"
     inkscape:window-y="0"
     inkscape:window-maximized="1"
     inkscape:current-layer="g2925" /><g
     id="g2925"
     inkscape:groupmode="layer"
     inkscape:label="SBC"
     transform="matrix(1.25,0,0,-1.25,0,150)"><g
       id="g3180"
       transform="translate(-4.00025,-4.2865479)"><path
         d="m 158.1289,53.3887 -4.568,-2.03 c 0,0 1.522,-4.772 7.613,-5.381 0,0 5.08,-0.605 8.024,3.963 l -4.97,3.247 c 0,0 -1.322,-2.027 -3.15,-1.926 0,0 -2.442,0.299 -2.949,2.127 m 6.703,2.441 -0.097,-1.12 4.874,-2.94 0.604,2.845 -5.381,1.215 z m -1.112,0.202 -1.627,-1.523 0,-1.12 1.828,1.226 -0.201,1.417 z m -4.576,0.105 -0.096,-1.321 1.627,-1.322 -0.105,1.216 -1.426,1.427 z m -1.619,0.306 -5.075,-0.508 c 0,0 0.096,-2.031 0.604,-3.351 l 4.567,2.232 -0.096,1.627 z m 2.231,3.046 -0.402,-1.016 1.418,-1.321 0.201,0.813 -1.217,1.524 z m 5.487,0.095 -0.105,-1.829 5.277,-1.216 -0.097,2.538 -5.075,0.507 z m -1.322,0 -1.626,-1.418 0,-1.12 1.933,0.709 -0.307,1.829 z m -6.3,0.709 -5.075,-0.297 -0.201,-2.844 c 0,0 2.638,0.61 5.075,0.813 l 0.201,2.328 z m 6.607,3.456 -1.828,-2.231 0.096,-1.32 1.933,1.417 -0.201,2.134 z m -4.778,0.508 0,-2.231 1.733,-1.523 0.096,1.322 -1.829,2.432 z m 33.611,0.612 -0.814,-1.225 2.135,-4.567 c 0,0 2.739,1.831 2.739,2.135 0,0.304 -4.06,3.657 -4.06,3.657 m -22.34,0.097 -5.277,-0.097 0.105,-3.053 5.172,-0.805 0,3.955 z m -17.868,0.612 -0.202,-4.06 5.18,0.201 0.201,3.554 -5.179,0.305 z m 38.581,0.307 -2.74,-0.718 0.814,-0.91 2.232,0.403 -0.306,1.225 z m -5.986,1.216 -5.084,-0.105 c -1.32,-8.325 6.3,-10.352 6.3,-10.352 3.757,-0.711 6.703,1.522 6.703,1.522 l -2.643,4.673 c -4.366,-0.914 -5.276,4.262 -5.276,4.262 m 2.844,1.016 -0.814,-0.508 0.403,-1.523 1.015,0 -0.604,2.031 z m 7.307,0.506 -1.418,-1.933 3.85,-4.262 2.039,2.441 -4.471,3.754 z m -2.442,0.403 -1.522,-0.909 0.612,-1.217 1.426,0.91 -0.516,1.216 z m -3.649,2.337 0,-2.538 1.216,0.306 -0.201,2.135 -1.015,0.097 z m -7.411,1.12 c -1.016,-0.507 -1.427,-3.352 -1.427,-3.352 l 5.592,-0.612 0.709,0.717 -4.874,3.247 z m 13.397,0.105 -1.926,-1.629 0.814,-0.918 2.538,1.734 -1.426,0.813 z m 2.948,0.201 -1.723,-2.748 3.955,-3.648 2.336,3.246 -4.568,3.15 z m -5.381,2.739 -1.933,-2.336 1.119,-1.627 0.91,1.521 -0.096,2.442 z m -8.532,0.612 -1.925,-2.44 4.97,-3.046 1.628,2.135 -4.673,3.351 z m -15.331,2.941 -1.925,-3.151 4.367,-3.648 1.522,3.141 -3.964,3.658 z m -9.844,1.522 -5.793,-0.909 0.21,-4.473 5.784,2.232 -0.201,3.15 z m 28.728,0.307 -2.537,-3.15 4.567,-3.554 2.441,2.845 -4.471,3.859 z m -22.034,0.307 -0.91,-1.523 0.91,-2.643 2.039,2.232 -2.039,1.934 z m -2.03,0.909 -3.649,-1.828 -0.105,-2.635 3.456,2.337 0.298,2.126 z m 7.517,1.322 -1.322,-2.739 4.568,-3.046 2.135,3.755 -5.381,2.03 z m 36.657,1.215 -2.032,-2.231 2.94,-4.979 3.046,3.256 -3.954,3.954 z m -41.33,1.628 -0.507,-2.134 2.24,-3.046 1.216,1.829 -2.949,3.351 z m -13.091,0.307 -0.105,-4.367 5.487,1.112 0.096,2.441 -5.478,0.814 z m 19.391,1.111 -0.717,-2.538 5.18,-1.828 1.523,3.963 -5.986,0.403 z m -7.823,0.306 -4.366,-2.135 0.105,-0.402 0,-2.538 3.754,1.925 0.507,3.15 z m 45.695,1.216 -1.522,-2.327 4.664,-3.763 2.135,2.949 -5.277,3.141 z m -6.195,0.814 -1.015,-2.432 1.828,-3.255 1.217,1.522 -2.03,4.165 z m -4.06,0 c 0,0 -0.712,-3.45 -0.306,-3.044 0.406,0.405 2.336,2.949 2.336,2.949 l -2.03,0.095 z m -4.367,0.815 -0.411,-1.724 2.441,-0.508 0.709,1.925 -2.739,0.307 z m -27.817,0.918 -1.322,-2.748 3.352,-4.261 1.216,2.537 -3.246,4.472 z m -13.511,0.603 c 0,0 -0.706,-2.642 -0.604,-3.657 l 4.874,-1.522 0.402,2.843 -4.672,2.336 z m 11.778,0.412 -5.075,-2.039 -0.306,-2.739 4.576,1.725 0.805,3.053 z m 46.71,0.91 -1.015,-2.538 4.769,-2.643 1.724,2.845 -5.478,2.336 z m -34.118,0.097 -5.277,-0.499 0.097,-2.844 5.084,-0.814 c 0.508,2.132 0.096,4.157 0.096,4.157 m 28.738,1.023 -0.508,-0.411 1.111,-2.844 -2.231,-0.096 1.723,-3.763 1.828,2.844 -1.923,4.27 z m -5.891,0.201 -1.321,-2.537 4.166,0.814 -0.507,1.312 -2.338,0.411 z m -32.595,2.232 -0.91,-2.643 3.247,-4.462 0.612,2.23 -2.949,4.875 z m -12.382,0.201 -1.426,-3.246 4.567,-2.135 1.225,2.747 -4.366,2.634 z m 37.26,0.411 -0.307,-1.014 3.352,-2.031 -0.403,-2.03 1.925,-0.516 0.919,3.054 -5.486,2.537 z m -26.094,0.096 -3.86,-1.014 -1.522,-3.352 4.567,1.523 0.815,2.843 z m 47.717,0.412 c 0,0 -1.015,-2.443 -1.217,-2.748 -0.203,-0.304 4.673,-2.327 4.673,-2.327 l 1.216,3.553 -4.672,1.522 z m -5.785,1.111 -0.201,-0.91 0.813,-2.231 -0.305,-0.814 -1.629,1.724 1.934,-4.979 2.232,3.255 -2.844,3.955 z m -31.581,0.411 -4.874,-1.321 0.21,-2.643 5.076,-0.096 c 0,0 0.198,2.944 -0.412,4.06 m 28.229,0.709 -3.447,-1.321 -0.814,-2.634 4.568,1.216 -0.307,0.805 -2.939,-0.805 0.508,0.911 2.336,0.918 0.095,0.91 z m -26.846,0.307 0.367,-3.859 11.472,0 0.937,3.859 -12.776,0 z m -35.396,0 0,-64.169 64.176,0 0,38.495 -3.858,-3.72 0,-30.915 -56.459,0 0,56.45 6.834,0 1.82,3.859 -12.513,0 z m 25.893,0.813 -0.709,-1.933 c 0,0 1.421,-1.421 2.031,-3.046 l 0.402,0.814 c 0,0 -0.709,2.744 -1.724,4.165 m -1.523,0.806 c -1.015,-0.406 -3.15,-2.836 -3.15,-2.836 l -0.096,-0.516 2.94,1.015 0.306,2.337 z m -8.934,0.306 -1.926,-2.739 4.263,-3.246 1.627,2.739 -3.964,3.246 z m 36.962,0.918 -2.135,-3.561 4.979,-2.634 1.62,3.246 -4.464,2.949 z m 20.206,0.298 -1.121,-1.619 1.121,-2.336 3.447,-0.507 c 1.624,0.202 1.121,3.552 1.121,3.552 l -4.568,0.91 z m -4.98,0.612 -1.418,-2.029 2.433,-4.674 1.426,2.232 -2.441,4.471 z m -1.628,0.201 -4.768,-0.296 -0.709,-2.749 4.567,1.322 0.91,1.723 z m 3.86,4.061 -1.112,-1.417 1.016,-2.644 1.416,-0.201 -1.32,4.262 z m -1.821,0.307 c -3.146,-0.204 -4.47,-2.031 -4.47,-2.031 l 3.858,1.12 0.612,0.911 z m -12.39,0.201 -2.136,-3.247 4.165,-3.15 2.434,2.546 -4.463,3.851 z m -29.192,1.549 c -1.544,-0.014 -6.02,-0.554 -9.897,-5.916 l 3.955,-3.85 c 0,0 2.032,3.755 4.874,3.246 0,0 2.639,-0.408 3.553,-3.859 l 5.285,1.628 c 0,0 -1.118,6.702 -7.21,8.733 0,0 -0.204,0.02 -0.56,0.018 m 33.865,3.832 -2.845,-3.141 2.74,1.321 0.105,-1.225 -1.322,-1.724 2.336,-2.739 2.233,1.926 -3.247,5.582 z m 7.981,3.413 c -0.828,-0.003 -1.553,-0.104 -2.093,-0.263 -1.725,-0.508 -4.059,-2.03 -4.059,-2.03 l 2.939,-4.874 c 0,0 2.44,1.726 5.182,0.508 2.74,-1.219 2.125,-5.382 2.125,-5.382 0,0 3.458,-0.203 5.793,0.814 0,0 0.203,6.599 -3.86,9.442 -1.9,1.331 -4.209,1.792 -6.027,1.785"
         style="fill:#3a9d9c;fill-opacity:1;fill-rule:nonzero;stroke:none"
         id="path2937" /><path
         d="m 50.7334,67.7744 0,-5.285 c 0,-1.289 -0.07,-2.078 -0.219,-2.38 -0.148,-0.303 -0.472,-0.455 -0.962,-0.455 -0.516,0 -0.859,0.19 -1.032,0.577 -0.174,0.387 -0.263,1.245 -0.263,2.572 0,1.161 0.106,2.051 0.306,2.67 0.2,0.618 0.92,1.386 2.17,2.301 m 67.169,9.372 c 0.529,0 0.855,-0.163 0.972,-0.498 0.115,-0.336 0.174,-1.294 0.174,-2.88 l 0,-11.008 c 0,-1.367 -0.061,-2.228 -0.183,-2.582 -0.123,-0.354 -0.443,-0.524 -0.945,-0.524 -0.516,0 -0.852,0.19 -1.006,0.577 -0.155,0.387 -0.228,1.35 -0.228,2.897 l 0,10.64 c 0,1.483 0.07,2.414 0.219,2.8 0.147,0.388 0.481,0.578 0.997,0.578 m -29.83,4.087 0,-17.309 c 0,-2.204 0.041,-3.678 0.131,-4.42 0.09,-0.741 0.324,-1.452 0.691,-2.134 0.368,-0.684 0.934,-1.233 1.707,-1.646 0.773,-0.412 1.749,-0.621 2.922,-0.621 1.031,0 1.946,0.224 2.739,0.657 0.793,0.432 1.454,1.076 1.995,1.943 l -0.131,-2.135 7.945,0 0,25.665 -7.814,0 0,-17.274 c 0,-2.101 -0.056,-3.341 -0.166,-3.728 -0.109,-0.387 -0.452,-0.577 -1.032,-0.577 -0.542,0 -0.876,0.185 -0.998,0.56 -0.123,0.373 -0.183,1.555 -0.183,3.552 l 0,17.467 -7.806,0 z m 33.663,0.464 c -0.993,0 -1.91,-0.231 -2.748,-0.682 -0.838,-0.452 -1.605,-1.141 -2.301,-2.057 l 0.131,2.275 -7.945,0 0,-29.314 7.814,0 0,5.879 c 0.683,-0.891 1.441,-1.56 2.266,-2.012 0.825,-0.452 1.72,-0.683 2.687,-0.683 1.212,0 2.24,0.298 3.097,0.885 0.857,0.586 1.429,1.376 1.707,2.362 0.277,0.986 0.411,2.638 0.411,4.97 l 0,10.816 c 0,2.036 -0.104,3.481 -0.324,4.331 -0.219,0.851 -0.771,1.599 -1.653,2.25 -0.884,0.65 -1.93,0.98 -3.142,0.98 m -48.067,0 c -2.152,-0.142 -3.8,-1.425 -4.935,-3.842 l 0.315,3.378 -7.814,0 0,-25.665 7.814,0 0,10.132 c 0,2.488 0.073,4.08 0.227,4.769 0.155,0.691 0.573,1.224 1.243,1.611 0.67,0.386 1.72,0.586 3.15,0.586 l 0,9.031 z m -23.924,0 c -2.203,0 -3.993,-0.419 -5.372,-1.242 -1.38,-0.827 -2.299,-1.778 -2.757,-2.853 -0.458,-1.077 -0.682,-2.609 -0.682,-4.595 l 0,-1.715 7.324,0 0,2.686 c 0,1.431 0.063,2.319 0.192,2.661 0.129,0.341 0.461,0.507 0.989,0.507 0.464,0 0.797,-0.198 0.998,-0.603 0.199,-0.407 0.297,-1.286 0.297,-2.625 0,-1.071 -0.09,-1.78 -0.271,-2.126 -0.181,-0.35 -1.548,-1.027 -4.113,-2.032 -2.397,-0.927 -3.9,-1.736 -4.506,-2.431 -0.606,-0.698 -0.91,-2.01 -0.91,-3.93 l 0,-2.109 c 0,-2.591 0.566,-4.264 1.706,-5.032 1.141,-0.765 2.396,-1.155 3.763,-1.155 1.044,0 1.941,0.233 2.695,0.692 0.754,0.458 1.369,1.148 1.846,2.064 l 0,-2.291 7.604,0 0,12.88 c 0,4.241 -0.141,7.041 -0.411,8.401 -0.27,1.36 -1.074,2.505 -2.415,3.439 -1.341,0.935 -3.335,1.409 -5.977,1.409 m -31.668,0 c -1.714,0 -3.22,-0.268 -4.515,-0.797 -1.295,-0.527 -2.215,-1.276 -2.757,-2.249 -0.54,-0.974 -0.804,-2.492 -0.804,-4.541 0,-1.444 0.249,-2.686 0.752,-3.737 0.503,-1.05 1.897,-2.221 4.191,-3.509 2.733,-1.521 4.246,-2.439 4.542,-2.747 0.283,-0.31 0.429,-1.077 0.429,-2.302 0,-0.89 -0.105,-1.473 -0.324,-1.75 -0.22,-0.278 -0.609,-0.411 -1.164,-0.411 -0.515,0 -0.859,0.199 -1.032,0.612 -0.175,0.413 -0.263,1.316 -0.263,2.696 l 0,1.618 -6.921,0 0,-1.234 c 0,-2.139 0.259,-3.737 0.787,-4.795 0.529,-1.056 1.503,-1.902 2.914,-2.52 1.411,-0.618 3.107,-0.928 5.093,-0.928 1.791,0 3.324,0.294 4.594,0.867 1.27,0.574 2.171,1.387 2.713,2.45 0.541,1.063 0.814,2.645 0.814,4.734 0,1.868 -0.35,3.29 -1.059,4.27 -0.709,0.98 -2.203,2.025 -4.472,3.132 -1.701,0.838 -2.821,1.479 -3.369,1.917 -0.548,0.439 -0.879,0.841 -0.989,1.208 -0.109,0.367 -0.166,0.938 -0.166,1.724 0,0.58 0.114,1.023 0.332,1.312 0.22,0.291 0.551,0.429 0.989,0.429 0.542,0 0.88,-0.157 1.016,-0.472 0.135,-0.316 0.201,-1.063 0.201,-2.25 l 0,-1.39 6.921,0 0,1.487 c 0,1.288 -0.066,2.238 -0.201,2.844 -0.136,0.606 -0.526,1.26 -1.164,1.969 -0.638,0.709 -1.555,1.283 -2.747,1.715 -1.192,0.433 -2.64,0.648 -4.341,0.648 m 58.454,2.957 0,-4.043 -1.689,0 0,-4.06 1.689,0 0,-13.03 c 0,-2.552 0.068,-4.176 0.21,-4.864 0.142,-0.691 0.505,-1.304 1.085,-1.838 0.581,-0.535 1.252,-0.876 2.012,-1.024 0.761,-0.149 2.028,-0.227 3.807,-0.227 l 3.15,0 0,4.139 c -1.276,0 -2.005,0.094 -2.179,0.289 -0.174,0.192 -0.254,1.137 -0.254,2.825 l 0,13.73 2.101,0 0,4.06 -2.101,0 0,4.043 -7.831,0 z m -46.912,0 0,-4.043 -1.68,0 0,-4.06 1.68,0 0,-13.03 c 0,-2.552 0.077,-4.176 0.219,-4.864 0.142,-0.691 0.496,-1.304 1.076,-1.838 0.58,-0.535 1.252,-0.876 2.013,-1.024 0.76,-0.149 2.027,-0.227 3.807,-0.227 l 3.158,0 0,4.139 c -1.275,0 -2.005,0.094 -2.179,0.289 -0.173,0.192 -0.262,1.137 -0.262,2.825 l 0,13.73 2.109,0 0,4.06 -2.109,0 0,4.043 -7.832,0 z"
         style="fill:#86c266;fill-opacity:1;fill-rule:nonzero;stroke:none"
         id="path2941" /><path
         d="m 330.9951,65.9453 0,-5.276 c 0,-1.289 -0.079,-2.086 -0.227,-2.389 -0.149,-0.304 -0.465,-0.455 -0.955,-0.455 -0.515,0 -0.858,0.19 -1.032,0.577 -0.173,0.387 -0.262,1.245 -0.262,2.573 0,1.159 0.098,2.05 0.298,2.668 0.199,0.619 0.929,1.387 2.178,2.302 m 50.053,9.381 c 0.53,0 0.855,-0.172 0.971,-0.508 0.117,-0.334 0.166,-1.292 0.166,-2.879 l 0,-10.999 c 0,-1.366 -0.06,-2.226 -0.183,-2.581 -0.123,-0.354 -0.434,-0.534 -0.937,-0.534 -0.515,0 -0.851,0.19 -1.006,0.577 -0.154,0.387 -0.227,1.359 -0.227,2.905 l 0,10.632 c 0,1.483 0.069,2.414 0.219,2.801 0.147,0.387 0.482,0.586 0.997,0.586 m -102.669,0 c 0.463,0 0.767,-0.175 0.909,-0.517 0.142,-0.341 0.211,-1.17 0.211,-2.485 l 0,-11.83 c 0,-1.11 -0.071,-1.836 -0.22,-2.17 -0.148,-0.336 -0.455,-0.499 -0.918,-0.499 -0.451,0 -0.756,0.184 -0.91,0.551 -0.155,0.368 -0.227,1.16 -0.227,2.371 l 0,11.577 c 0,1.315 0.072,2.144 0.227,2.485 0.154,0.342 0.463,0.517 0.928,0.517 m -20.24,0 c 0.463,0 0.768,-0.175 0.91,-0.517 0.141,-0.341 0.209,-1.17 0.209,-2.485 l 0,-11.83 c 0,-1.11 -0.071,-1.836 -0.218,-2.17 -0.149,-0.336 -0.455,-0.499 -0.919,-0.499 -0.451,0 -0.755,0.184 -0.91,0.551 -0.155,0.368 -0.237,1.16 -0.237,2.371 l 0,11.577 c 0,1.315 0.082,2.144 0.237,2.485 0.155,0.342 0.464,0.517 0.928,0.517 m -20.364,0 c 0.491,0 0.823,-0.206 0.99,-0.612 0.167,-0.406 0.253,-1.272 0.253,-2.6 l 0,-10.807 c 0,-1.52 -0.079,-2.488 -0.227,-2.887 -0.149,-0.4 -0.464,-0.595 -0.953,-0.595 -0.478,0 -0.802,0.19 -0.964,0.577 -0.16,0.387 -0.235,1.272 -0.235,2.651 l 0,11.061 c 0,1.432 0.068,2.324 0.21,2.679 0.141,0.354 0.451,0.533 0.926,0.533 m 147.106,4.542 c -0.993,0 -1.909,-0.231 -2.747,-0.683 -0.838,-0.452 -1.606,-1.131 -2.302,-2.048 l 0.131,2.267 -7.945,0 0,-29.314 7.814,0 0,5.88 c 0.683,-0.892 1.433,-1.561 2.258,-2.013 0.824,-0.452 1.728,-0.673 2.695,-0.673 1.211,0 2.24,0.288 3.098,0.874 0.857,0.588 1.428,1.378 1.706,2.363 0.276,0.986 0.411,2.646 0.411,4.979 l 0,10.807 c 0,2.036 -0.106,3.481 -0.323,4.332 -0.22,0.85 -0.772,1.598 -1.655,2.249 -0.883,0.651 -1.929,0.98 -3.141,0.98 m -30.784,0 c -1.071,0 -2.024,-0.242 -2.862,-0.726 -0.838,-0.485 -1.564,-1.211 -2.171,-2.179 l 0.141,2.441 -7.718,0 0,-25.657 7.577,0 0,17.79 c 0,1.238 0.018,2.045 0.044,2.425 0.027,0.379 0.158,0.697 0.403,0.962 0.246,0.263 0.546,0.402 0.892,0.402 0.556,0 0.894,-0.258 1.016,-0.761 0.122,-0.503 0.184,-2.011 0.184,-4.524 l 0,-16.294 7.578,0 0,16.722 c 0,2.205 0.084,3.563 0.245,4.079 0.162,0.515 0.512,0.778 1.068,0.778 0.54,0 0.892,-0.266 1.041,-0.787 0.147,-0.523 0.218,-1.878 0.218,-4.07 l 0,-16.722 7.579,0 0,18.228 c 0,2.1 -0.124,3.624 -0.368,4.559 -0.244,0.934 -0.801,1.718 -1.671,2.363 -0.87,0.644 -1.972,0.971 -3.299,0.971 -1.006,0 -1.915,-0.242 -2.739,-0.726 -0.825,-0.485 -1.575,-1.211 -2.232,-2.179 -1.199,1.936 -2.839,2.905 -4.926,2.905 m -24.09,0 c -2.205,0 -3.994,-0.418 -5.373,-1.243 -1.38,-0.825 -2.299,-1.776 -2.756,-2.853 -0.458,-1.076 -0.692,-2.6 -0.692,-4.585 l 0,-1.723 7.333,0 0,2.686 c 0,1.431 0.063,2.318 0.193,2.659 0.128,0.342 0.46,0.517 0.988,0.517 0.464,0 0.788,-0.206 0.989,-0.612 0.2,-0.406 0.306,-1.277 0.306,-2.617 0,-1.07 -0.091,-1.787 -0.271,-2.135 -0.18,-0.348 -1.556,-1.024 -4.122,-2.03 -2.397,-0.927 -3.901,-1.736 -4.506,-2.433 -0.607,-0.696 -0.91,-2 -0.91,-3.92 l 0,-2.109 c 0,-2.59 0.574,-4.273 1.714,-5.04 1.142,-0.766 2.398,-1.146 3.764,-1.146 1.044,0 1.94,0.223 2.694,0.682 0.755,0.458 1.37,1.148 1.848,2.065 l 0,-2.284 7.595,0 0,12.872 c 0,4.241 -0.132,7.041 -0.403,8.4 -0.271,1.361 -1.074,2.514 -2.416,3.448 -1.34,0.936 -3.334,1.401 -5.975,1.401 m -19.611,0 c -2.049,0 -3.784,-0.433 -5.214,-1.304 -1.432,-0.87 -2.372,-1.867 -2.81,-2.975 -0.439,-1.109 -0.656,-2.748 -0.656,-4.927 l 0,-7.289 c 0,-2.501 0.269,-4.433 0.805,-5.793 0.534,-1.36 1.451,-2.414 2.739,-3.167 1.288,-0.755 3.029,-1.129 5.232,-1.129 1.728,0 3.186,0.274 4.358,0.822 1.172,0.548 2.117,1.357 2.845,2.433 0.728,1.076 1.159,2.126 1.294,3.15 0.136,1.026 0.215,2.562 0.229,4.611 l -6.966,0 0,-3.053 c 0,-1.328 -0.094,-2.228 -0.28,-2.704 -0.188,-0.478 -0.539,-0.718 -1.069,-0.718 -0.451,0 -0.79,0.225 -1.023,0.683 -0.232,0.457 -0.349,1.149 -0.349,2.065 l 0,12.101 c 0,1.123 0.072,1.839 0.227,2.162 0.154,0.322 0.46,0.49 0.91,0.49 0.451,0 0.76,-0.184 0.928,-0.551 0.167,-0.367 0.253,-1.069 0.253,-2.101 l 0,-2.958 7.369,0 c 0,2.411 -0.242,4.269 -0.718,5.584 -0.478,1.315 -1.436,2.409 -2.879,3.273 -1.443,0.863 -3.188,1.295 -5.225,1.295 m -32.29,0 c -2.087,0 -3.796,-0.405 -5.135,-1.216 -1.342,-0.812 -2.277,-1.889 -2.792,-3.229 -0.515,-1.34 -0.77,-3.207 -0.77,-5.592 l 0,-6.573 c 0,-2.177 0.146,-3.81 0.43,-4.899 0.282,-1.089 0.752,-2.024 1.417,-2.791 0.664,-0.768 1.592,-1.336 2.792,-1.716 1.198,-0.381 2.664,-0.568 4.391,-0.568 1.547,0 2.911,0.22 4.105,0.664 1.192,0.445 2.171,1.131 2.93,2.065 0.762,0.935 1.256,1.943 1.489,3.02 0.232,1.077 0.349,2.767 0.349,5.075 l 0,6.282 c 0,1.819 -0.125,3.172 -0.376,4.061 -0.251,0.89 -0.715,1.753 -1.4,2.591 -0.684,0.837 -1.657,1.516 -2.913,2.039 -1.258,0.522 -2.764,0.787 -4.517,0.787 m -20.238,0 c -2.089,0 -3.806,-0.405 -5.145,-1.216 -1.341,-0.812 -2.268,-1.889 -2.784,-3.229 -0.515,-1.34 -0.77,-3.207 -0.77,-5.592 l 0,-6.573 c 0,-2.177 0.136,-3.81 0.42,-4.899 0.284,-1.089 0.762,-2.024 1.427,-2.791 0.664,-0.768 1.592,-1.336 2.791,-1.716 1.198,-0.381 2.657,-0.568 4.384,-0.568 1.547,0 2.92,0.22 4.113,0.664 1.192,0.445 2.17,1.131 2.931,2.065 0.76,0.935 1.256,1.943 1.489,3.02 0.231,1.077 0.348,2.767 0.348,5.075 l 0,6.282 c 0,1.819 -0.124,3.172 -0.376,4.061 -0.252,0.89 -0.725,1.753 -1.408,2.591 -0.684,0.837 -1.648,1.516 -2.905,2.039 -1.257,0.522 -2.763,0.787 -4.515,0.787 m 32.42,2.958 0,-4.043 -1.68,0 0,-4.061 1.68,0 0,-13.03 c 0,-2.551 0.077,-4.176 0.218,-4.865 0.143,-0.689 0.498,-1.302 1.077,-1.837 0.58,-0.535 1.252,-0.875 2.013,-1.024 0.76,-0.148 2.036,-0.219 3.814,-0.219 l 3.151,0 0,4.139 c -1.276,0 -2.004,0.095 -2.178,0.288 -0.175,0.194 -0.264,1.129 -0.264,2.819 l 0,13.729 2.109,0 0,4.061 -2.109,0 0,4.043 -7.831,0 z m -61.464,2.222 0,-31.301 7.307,0 0.508,1.934 c 0.657,-0.801 1.377,-1.402 2.169,-1.802 0.792,-0.4 1.649,-0.595 2.565,-0.595 1.275,0 2.38,0.338 3.308,1.015 0.927,0.675 1.516,1.475 1.766,2.397 0.252,0.921 0.377,2.318 0.377,4.2 l 0,11.569 c 0,1.894 -0.038,3.129 -0.122,3.709 -0.085,0.581 -0.331,1.171 -0.744,1.778 -0.413,0.605 -1.017,1.073 -1.803,1.409 -0.786,0.334 -1.713,0.507 -2.782,0.507 -0.929,0 -1.789,-0.183 -2.582,-0.551 -0.792,-0.369 -1.509,-0.931 -2.152,-1.681 l 0,7.412 -7.815,0 z"
         style="fill:#3a9d9c;fill-opacity:1;fill-rule:nonzero;stroke:none"
         id="path2945" /><path
         id="path3099"
         d="m 255.3149,10.38358 c -1.20018,0.189318 -2.54106,0.770063 -3.2118,1.391053 -0.73396,0.67952 -1.18423,1.838541 -1.35387,3.484981 -0.11367,1.103167 -0.0542,4.882524 0.0885,5.623879 0.2033,1.056109 0.44536,1.589135 0.94986,2.091695 0.67825,0.67564 1.93059,1.323028 4.77102,2.466366 2.21328,0.890893 3.30549,1.419682 3.67901,1.781174 0.25703,0.248748 0.29788,0.331811 0.37009,0.752394 0.0967,0.563249 0.10077,2.870836 0.006,3.437764 -0.13648,0.81706 -0.29804,1.129817 -0.68583,1.327649 -0.4941,0.252074 -1.20177,0.12195 -1.49039,-0.274049 -0.19675,-0.269962 -0.25368,-1.024952 -0.25592,-3.393851 l -0.002,-2.211913 -3.75765,0 -3.75766,0 0.0373,1.874217 c 0.0693,3.47824 0.47265,4.843823 1.83217,6.20273 1.934,1.933138 4.5469,2.735955 8.22186,2.52618 2.77306,-0.158292 4.48513,-0.76579 5.88812,-2.089299 0.78988,-0.745138 1.31472,-1.60291 1.56005,-2.549671 0.14264,-0.55044 0.28864,-1.870382 0.37958,-3.431432 0.0432,-0.741221 0.0906,-4.94192 0.11237,-9.945165 l 0.0376,-8.66192 -3.89073,0 -3.89075,0 -0.0185,1.151493 -0.0185,1.151491 -0.3377,-0.518045 c -0.67951,-1.042397 -1.71593,-1.794954 -2.87043,-2.084238 -0.53187,-0.133276 -1.84336,-0.190016 -2.39192,-0.103484 z m 4.80536,4.703552 c 0.39362,0.186787 0.48895,0.503716 0.56097,1.864909 0.0908,1.715648 0.0836,6.261559 -0.01,6.261559 -0.16019,0 -1.2583,-0.947728 -1.66873,-1.440208 -0.63528,-0.762285 -0.76287,-1.282809 -0.80697,-3.292383 -0.0618,-2.814908 0.19279,-3.507207 1.28967,-3.507207 0.23083,0 0.49572,0.04728 0.63491,0.11333 z M 298.6076,10.38358 c -1.20017,0.189318 -2.54105,0.770063 -3.2118,1.391053 -0.73396,0.67952 -1.18422,1.838541 -1.35387,3.484981 -0.11367,1.103167 -0.0542,4.882524 0.0885,5.623879 0.2033,1.056109 0.44535,1.589135 0.94986,2.091695 0.67826,0.67564 1.93058,1.323028 4.77102,2.466366 2.21327,0.890893 3.30549,1.419682 3.67901,1.781174 0.25703,0.248748 0.29788,0.331811 0.37008,0.752394 0.0967,0.563249 0.10077,2.870836 0.006,3.437764 -0.13649,0.81706 -0.29805,1.129817 -0.68583,1.327649 -0.49411,0.252074 -1.20177,0.12195 -1.49039,-0.274049 -0.19675,-0.269962 -0.25369,-1.024952 -0.25592,-3.393851 l -0.002,-2.211913 -3.75766,0 -3.75765,0 0.0373,1.874217 c 0.0693,3.47824 0.47266,4.843823 1.83217,6.20273 1.934,1.933138 4.5469,2.735955 8.22186,2.52618 2.77305,-0.158292 4.48513,-0.76579 5.88812,-2.089299 0.78988,-0.745138 1.31472,-1.60291 1.56005,-2.549671 0.14263,-0.55044 0.28865,-1.870382 0.37958,-3.431432 0.0432,-0.741221 0.0907,-4.94192 0.11237,-9.945165 l 0.0376,-8.66192 -3.89075,0 -3.89074,0 -0.0185,1.151493 -0.0185,1.151491 -0.3377,-0.518045 c -0.6795,-1.042397 -1.71592,-1.794954 -2.87042,-2.084238 -0.53188,-0.133276 -1.84336,-0.190016 -2.39193,-0.103484 z m 4.80536,4.703552 c 0.39362,0.186787 0.48896,0.503716 0.56098,1.864909 0.0908,1.715648 0.0836,6.261559 -0.01,6.261559 -0.1602,0 -1.2583,-0.947728 -1.66873,-1.440208 -0.63529,-0.762285 -0.76287,-1.282809 -0.80697,-3.292383 -0.0618,-2.814908 0.19279,-3.507207 1.28967,-3.507207 0.23083,0 0.49572,0.04728 0.6349,0.11333 z M 228.8,26.793184 228.8,42.8 l 4.15366,0 4.15367,0 0,-5.707071 0,-5.707072 1.24948,0 1.24948,0 0,5.707072 0,5.707071 4.15367,0 4.15366,0 0,-16.006816 0,-16.006822 -4.15366,0 -4.15367,0 0,6.720163 0,6.720165 -1.24948,0 -1.24948,0 0,-6.720165 0,-6.720163 -4.15367,0 -4.15366,0 0,16.006822 z m 42.68484,-2.870421 0,13.136396 4.1199,0 4.1199,0 0,-13.136396 0,-13.1364 -4.1199,0 -4.1199,0 0,13.1364 z m 11.41415,-2.397646 0,10.738751 -0.84425,0 -0.84424,0 0,2.05787 0,2.05787 0.82736,0.01897 0.82736,0.01897 0.0431,1.485865 c 0.0472,1.627707 0.13744,2.18378 0.44801,2.760859 0.40653,0.755372 1.28271,1.400671 2.34556,1.727464 0.96976,0.298171 1.6113,0.35495 4.40694,0.390024 l 2.65092,0.03326 0,-2.033682 0,-2.033681 -0.92867,-0.0014 c -1.04803,-0.0016 -1.79647,-0.08939 -2.02248,-0.237476 -0.2903,-0.190216 -0.38085,-0.482347 -0.4127,-1.331475 l -0.0298,-0.793586 1.69681,0 1.69681,0 0,-2.059949 0,-2.05995 -0.94555,0 -0.94556,0 0,-10.73875 0,-10.738755 -3.98481,0 -3.98482,0 0,10.738755 z m -11.41415,19.214936 0,2.059947 4.1199,0 4.1199,0 0,-2.059947 0,-2.05995 -4.1199,0 -4.1199,0 0,2.05995 z"
         style="fill:#86c266" /></g></g></svg>