<?xml version="1.0" encoding="UTF-8" standalone="no"?>
<!-- Created with Inkscape (http://www.inkscape.org/) -->

<svg
   xmlns:dc="http://purl.org/dc/elements/1.1/"
   xmlns:cc="http://creativecommons.org/ns#"
   xmlns:rdf="http://www.w3.org/1999/02/22-rdf-syntax-ns#"
   xmlns:svg="http://www.w3.org/2000/svg"
   xmlns="http://www.w3.org/2000/svg"
   xmlns:xlink="http://www.w3.org/1999/xlink"
   xmlns:sodipodi="http://sodipodi.sourceforge.net/DTD/sodipodi-0.dtd"
   xmlns:inkscape="http://www.inkscape.org/namespaces/inkscape"
   id="svg2837"
   version="1.1"
   inkscape:version="0.47 r22583"
   width="285"
   height="78"
   xml:space="preserve"
   sodipodi:docname="Wix.svg"><metadata
     id="metadata2843"><rdf:RDF><cc:Work
         rdf:about=""><dc:format>image/svg+xml</dc:format><dc:type
           rdf:resource="http://purl.org/dc/dcmitype/StillImage" /><dc:title></dc:title></cc:Work></rdf:RDF></metadata><defs
     id="defs2841"><inkscape:perspective
       sodipodi:type="inkscape:persp3d"
       inkscape:vp_x="0 : 0.5 : 1"
       inkscape:vp_y="0 : 1000 : 0"
       inkscape:vp_z="1 : 0.5 : 1"
       inkscape:persp3d-origin="0.5 : 0.33333333 : 1"
       id="perspective2845" /><clipPath
       clipPathUnits="userSpaceOnUse"
       id="clipPath2853"><path
         d="m 0,444.961 577.52,0 L 577.52,0 0,0 0,444.961 z"
         id="path2855" /></clipPath><clipPath
       clipPathUnits="userSpaceOnUse"
       id="clipPath2881"><path
         d="m 131.576,391.599 c -0.261,-0.006 -0.503,-0.013 -0.713,-0.012 -2.369,0.004 -4.736,0.007 -7.104,0.009 -1.66,0.005 -3.316,0.007 -4.973,0.008 -3.932,0.004 -7.558,-2.999 -10.333,-5.378 -2.701,-2.33 -5.018,-5.143 -7.225,-7.932 -0.793,2.174 -1.834,4.31 -2.916,6.26 -1.417,2.777 -4.194,5.456 -7.306,6.107 -1.189,0.249 -2.483,0.22 -3.733,0.192 -0.41,-0.01 -0.815,-0.019 -1.209,-0.018 -1.386,0.002 -5.327,0 -5.327,0 0,0 -3.942,0.002 -5.328,0 -0.395,-10e-4 -0.8,0.008 -1.209,0.018 -1.25,0.028 -2.545,0.057 -3.732,-0.192 -3.112,-0.651 -5.89,-3.33 -7.306,-6.107 -1.083,-1.95 -2.123,-4.086 -2.917,-6.26 -2.207,2.789 -4.524,5.602 -7.224,7.932 -2.776,2.379 -6.401,5.382 -10.333,5.378 -1.659,-10e-4 -3.315,-0.003 -4.973,-0.008 -2.367,-0.002 -4.735,-0.005 -7.103,-0.009 -0.212,-10e-4 -0.454,0.006 -0.715,0.012 -1.874,0.047 -4.717,0.093 -3.923,-2.365 0.22,-0.688 0.988,-1.294 1.427,-1.864 0.497,-0.643 0.997,-1.297 1.427,-1.988 0.69,-1.107 1.358,-2.232 2.003,-3.367 1.555,-2.742 2.864,-5.627 4.403,-8.381 3.394,-6.079 7.019,-12.014 11.409,-17.434 3.236,-3.996 7.145,-8.033 11.985,-10.018 -3.654,-6.79 -7.289,-13.589 -10.935,-20.386 -3.15,-5.875 -6.305,-11.723 -9.628,-17.504 -0.161,-0.28 -0.323,-0.557 -0.474,-0.84 -0.441,-0.82 -1.06,-1.97 -1.056,-2.922 0.003,-1.873 2.79,-1.929 4.12,-1.937 1.439,-0.012 2.881,0.029 4.321,0.045 2.499,0.029 4.999,0.056 7.5,0.086 0.403,0.004 0.808,0.004 1.213,0.003 1.083,-0.003 2.171,-0.005 3.245,0.098 3.75,0.358 7.177,2.234 9.391,5.307 0.718,0.996 7.442,12.025 10.162,16.482 1.027,1.684 4.25,6.721 4.25,6.721 0,0 3.221,-5.037 4.25,-6.721 2.72,-4.457 9.445,-15.486 10.161,-16.482 2.215,-3.073 5.641,-4.949 9.392,-5.307 1.073,-0.103 2.16,-0.1 3.243,-0.098 0.406,0.001 0.811,0.001 1.214,-0.003 2.501,-0.03 5.001,-0.057 7.501,-0.086 1.441,-0.016 2.881,-0.057 4.322,-0.045 1.33,0.008 4.115,0.064 4.12,1.937 0.003,0.952 -0.617,2.102 -1.057,2.922 -0.152,0.283 -0.315,0.56 -0.475,0.84 -3.322,5.781 -6.476,11.629 -9.627,17.504 -3.645,6.797 -7.281,13.596 -10.935,20.386 4.84,1.985 8.75,6.022 11.986,10.018 4.388,5.42 8.014,11.355 11.408,17.434 1.537,2.754 2.848,5.639 4.401,8.381 0.646,1.135 1.314,2.26 2.005,3.367 0.43,0.691 0.93,1.345 1.426,1.988 0.439,0.57 1.208,1.176 1.429,1.864 0.684,2.122 -1.344,2.378 -3.116,2.378 -0.28,0 -0.553,-0.007 -0.809,-0.013"
         id="path2883" /></clipPath><linearGradient
       x1="0"
       y1="0"
       x2="1"
       y2="0"
       gradientUnits="userSpaceOnUse"
       gradientTransform="matrix(-24.688034,-232.84152,-94.57843,10.016861,135.30908,460.86279)"
       spreadMethod="pad"
       id="linearGradient2897"><stop
         style="stop-opacity:1;stop-color:#d1d3d4"
         offset="0"
         id="stop2899" /><stop
         style="stop-opacity:1;stop-color:#ffffff"
         offset="0.552933"
         id="stop2901" /><stop
         style="stop-opacity:1;stop-color:#ffffff"
         offset="1"
         id="stop2903" /></linearGradient><linearGradient
       x1="0"
       y1="0"
       x2="1"
       y2="0"
       gradientUnits="userSpaceOnUse"
       gradientTransform="matrix(-24.686935,-232.83121,-94.574234,10.016419,99.633301,464.63721)"
       spreadMethod="pad"
       id="linearGradient2919"><stop
         style="stop-opacity:1;stop-color:#d1d3d4"
         offset="0"
         id="stop2921" /><stop
         style="stop-opacity:1;stop-color:#ffffff"
         offset="0.552933"
         id="stop2923" /><stop
         style="stop-opacity:1;stop-color:#ffffff"
         offset="1"
         id="stop2925" /></linearGradient><clipPath
       clipPathUnits="userSpaceOnUse"
       id="clipPath2933"><path
         d="m 0,444.961 577.52,0 L 577.52,0 0,0 0,444.961 z"
         id="path2935" /></clipPath><clipPath
       clipPathUnits="userSpaceOnUse"
       id="clipPath3001"><path
         d="m 223.235,188.586 c -0.167,-0.005 -0.323,-0.008 -0.458,-0.007 l -4.535,0.006 c -1.058,0 -2.116,0.004 -3.174,0.004 -2.51,0.004 -4.824,-1.915 -6.597,-3.436 -1.725,-1.484 -3.203,-3.281 -4.612,-5.064 -0.508,1.389 -1.172,2.754 -1.863,3.998 -0.905,1.776 -2.677,3.487 -4.664,3.901 -1.006,0.21 -2.133,0.108 -3.154,0.108 -0.885,0.002 -3.401,0 -3.401,0 0,0 -2.517,0.002 -3.402,0 -1.022,0 -2.148,0.102 -3.153,-0.108 -1.987,-0.414 -3.761,-2.125 -4.666,-3.901 -0.691,-1.244 -1.355,-2.609 -1.861,-3.998 -1.41,1.783 -2.888,3.58 -4.613,5.064 -1.771,1.521 -4.086,3.44 -6.596,3.436 -1.059,0 -2.117,-0.004 -3.176,-0.004 -1.512,-0.002 -3.022,-0.004 -4.535,-0.006 -0.136,-0.001 -0.29,0.002 -0.458,0.007 -1.196,0.028 -3.008,0.056 -2.503,-1.513 0.141,-0.437 0.632,-0.824 0.913,-1.187 0.317,-0.412 0.635,-0.828 0.91,-1.272 0.441,-0.704 0.868,-1.424 1.279,-2.148 0.992,-1.751 1.828,-3.594 2.811,-5.351 2.167,-3.879 4.481,-7.668 7.283,-11.13 2.066,-2.55 4.562,-5.129 7.652,-6.394 -2.334,-4.336 -4.654,-8.676 -6.98,-13.014 -2.012,-3.751 -4.026,-7.487 -6.147,-11.176 -0.103,-0.178 -0.207,-0.355 -0.303,-0.535 -0.281,-0.527 -0.678,-1.259 -0.676,-1.865 0.004,-1.197 1.782,-1.235 2.632,-1.24 0.918,-0.006 1.839,0.02 2.757,0.029 1.596,0.018 3.194,0.037 4.789,0.055 0.261,0.002 0.524,0.002 0.788,0.001 0.686,-0.001 1.378,-0.002 2.059,0.063 2.394,0.231 4.581,1.428 5.995,3.389 0.458,0.636 4.751,7.678 6.487,10.521 0.657,1.076 2.714,4.293 2.714,4.293 0,0 2.057,-3.217 2.713,-4.293 1.736,-2.843 6.029,-9.885 6.487,-10.521 1.413,-1.961 3.601,-3.158 5.996,-3.389 0.681,-0.065 1.371,-0.064 2.058,-0.063 0.262,0.001 0.525,0.001 0.787,-0.001 1.596,-0.018 3.192,-0.037 4.79,-0.055 0.92,-0.009 1.839,-0.035 2.757,-0.029 0.85,0.005 2.629,0.043 2.631,1.24 0.003,0.606 -0.392,1.338 -0.675,1.865 -0.096,0.18 -0.2,0.357 -0.302,0.535 -2.121,3.689 -4.134,7.425 -6.147,11.176 -2.327,4.338 -4.649,8.678 -6.982,13.014 3.09,1.265 5.587,3.844 7.653,6.394 2.803,3.462 5.117,7.251 7.283,11.13 0.983,1.757 1.819,3.6 2.811,5.351 0.412,0.724 0.838,1.444 1.279,2.148 0.276,0.444 0.593,0.86 0.91,1.272 0.281,0.363 0.772,0.75 0.913,1.187 0.439,1.361 -0.869,1.52 -2.004,1.52 -0.173,0 -0.342,-0.003 -0.5,-0.007"
         id="path3003" /></clipPath><linearGradient
       x1="0"
       y1="0"
       x2="1"
       y2="0"
       gradientUnits="userSpaceOnUse"
       gradientTransform="matrix(-15.770798,-148.73997,-60.417038,6.3988037,225.62012,232.84277)"
       spreadMethod="pad"
       id="linearGradient3017"><stop
         style="stop-opacity:1;stop-color:#d1d3d4"
         offset="0"
         id="stop3019" /><stop
         style="stop-opacity:1;stop-color:#ffffff"
         offset="0.552933"
         id="stop3021" /><stop
         style="stop-opacity:1;stop-color:#ffffff"
         offset="1"
         id="stop3023" /></linearGradient><linearGradient
       x1="0"
       y1="0"
       x2="1"
       y2="0"
       gradientUnits="userSpaceOnUse"
       gradientTransform="matrix(-15.761169,-148.64909,-60.380112,6.3948975,202.84082,235.2168)"
       spreadMethod="pad"
       id="linearGradient3039"><stop
         style="stop-opacity:1;stop-color:#d1d3d4"
         offset="0"
         id="stop3041" /><stop
         style="stop-opacity:1;stop-color:#ffffff"
         offset="0.552933"
         id="stop3043" /><stop
         style="stop-opacity:1;stop-color:#ffffff"
         offset="1"
         id="stop3045" /></linearGradient><clipPath
       clipPathUnits="userSpaceOnUse"
       id="clipPath3053"><path
         d="m 0,444.961 577.52,0 L 577.52,0 0,0 0,444.961 z"
         id="path3055" /></clipPath><linearGradient
       inkscape:collect="always"
       xlink:href="#linearGradient3017"
       id="linearGradient3275"
       gradientUnits="userSpaceOnUse"
       gradientTransform="matrix(-15.770798,-148.73997,-60.417038,6.3988037,225.62012,232.84277)"
       spreadMethod="pad"
       x1="0"
       y1="0"
       x2="1"
       y2="0" /><linearGradient
       inkscape:collect="always"
       xlink:href="#linearGradient3039"
       id="linearGradient3277"
       gradientUnits="userSpaceOnUse"
       gradientTransform="matrix(-15.761169,-148.64909,-60.380112,6.3948975,202.84082,235.2168)"
       spreadMethod="pad"
       x1="0"
       y1="0"
       x2="1"
       y2="0" /><linearGradient
       inkscape:collect="always"
       xlink:href="#linearGradient3017"
       id="linearGradient3365"
       gradientUnits="userSpaceOnUse"
       gradientTransform="matrix(-15.770798,-148.73997,-60.417038,6.3988037,225.62012,232.84277)"
       spreadMethod="pad"
       x1="0"
       y1="0"
       x2="1"
       y2="0" /><linearGradient
       inkscape:collect="always"
       xlink:href="#linearGradient3039"
       id="linearGradient3367"
       gradientUnits="userSpaceOnUse"
       gradientTransform="matrix(-15.761169,-148.64909,-60.380112,6.3948975,202.84082,235.2168)"
       spreadMethod="pad"
       x1="0"
       y1="0"
       x2="1"
       y2="0" /></defs><sodipodi:namedview
     pagecolor="#ffffff"
     bordercolor="#666666"
     borderopacity="1"
     objecttolerance="10"
     gridtolerance="10"
     guidetolerance="10"
     inkscape:pageopacity="0"
     inkscape:pageshadow="2"
     inkscape:window-width="1366"
     inkscape:window-height="753"
     id="namedview2839"
     showgrid="false"
     inkscape:zoom="1"
     inkscape:cx="173.68796"
     inkscape:cy="26.584592"
     inkscape:window-x="0"
     inkscape:window-y="0"
     inkscape:window-maximized="1"
     inkscape:current-layer="g2847" /><g
     id="g2847"
     inkscape:groupmode="layer"
     inkscape:label="wix_logo"
     transform="matrix(1.25,0,0,-1.25,-187.26206,329.51604)"><g
       id="g3321"
       transform="translate(-1.999996,-0.799998)"><g
         transform="translate(319.77958,238.92668)"
         id="g2977"><path
           id="path2979"
           style="fill:#000000;fill-opacity:1;fill-rule:nonzero;stroke:none"
           d="M 0,0 C 0,3.912 0,8.475 -0.021,13.643 -0.711,12.805 -1.717,12.029 -2.971,11.342 -5.21,10.107 -6.863,9.248 -7.889,8.725 -8.935,8.223 -9.604,7.658 -9.896,7.008 -10.211,6.381 -10.379,6.025 -10.379,5.984 l 0.084,-40.408 c 1.779,0 3.014,0.065 3.684,0.168 1.401,0.061 2.782,0.67 4.142,1.84 1.507,1.299 2.323,2.869 2.469,4.689 l 0,8.809 0,15.131 0,0.375 0,1.947 0,0.647 L 0,0 z" /></g><g
         transform="translate(348.05008,242.86028)"
         id="g2981"><path
           id="path2983"
           style="fill:#000000;fill-opacity:1;fill-rule:nonzero;stroke:none"
           d="m 0,0 c -0.125,0.188 -0.941,1.443 -2.49,3.703 l -7.407,11.154 c -1.361,1.653 -3.013,2.803 -4.98,3.411 l -9.167,0.564 19.19,-28.564 0.083,-0.082 -0.083,0 -19.19,-28.543 4.689,0 c 1.757,0.064 3.243,0.228 4.394,0.543 1.945,0.628 3.619,1.716 5.064,3.287 l 7.407,11.298 c 1.549,2.26 2.365,3.454 2.49,3.598 0.355,0.629 0.858,1.09 1.466,1.447 0.167,0.061 0.355,0.123 0.564,0.166 0.125,-0.043 0.272,-0.105 0.44,-0.166 0.606,-0.357 1.13,-0.818 1.569,-1.447 0.105,-0.144 0.921,-1.338 2.406,-3.598 l 7.512,-11.298 c 0.356,-0.461 0.796,-0.901 1.277,-1.256 1.193,-0.944 2.428,-1.613 3.766,-2.031 1.15,-0.315 2.615,-0.479 4.395,-0.543 l 4.709,0 -19.168,28.543 0,0.082 19.168,28.564 -4.709,0 C 21.615,18.77 20.15,18.582 19,18.268 16.992,17.66 15.318,16.51 13.957,14.857 L 6.445,3.703 C 4.96,1.443 4.144,0.188 4.039,0 3.6,-0.545 3.076,-1.006 2.47,-1.361 2.302,-1.424 2.155,-1.486 2.03,-1.57 1.821,-1.486 1.633,-1.424 1.466,-1.361 0.858,-1.006 0.355,-0.545 0,0" /></g><g
         transform="translate(318.79718,255.28998)"
         id="g2985"><path
           id="path2987"
           style="fill:#ffcc00;fill-opacity:1;fill-rule:nonzero;stroke:none"
           d="M 0,0 C 1.15,2.217 1.61,4.416 1.402,6.633 -0.838,6.383 -2.617,6.006 -3.955,5.523 -5.022,5.021 -5.964,4.352 -6.801,3.43 -7.492,2.678 -8.016,1.84 -8.371,0.898 -8.664,0.314 -8.873,-0.314 -8.979,-1.027 -9.334,-2.932 -9.48,-4.834 -9.354,-6.779 c 1.36,1.047 2.7,1.818 4.039,2.3 1.338,0.481 2.406,1.047 3.202,1.758 C -1.36,-2.029 -0.629,-1.133 0,0" /></g><g
         transform="translate(300.65458,261.12778)"
         id="g2989"><path
           id="path2991"
           style="fill:#000000;fill-opacity:1;fill-rule:nonzero;stroke:none"
           d="M 0,0 C -1.172,-0.232 -2.176,-0.711 -3.056,-1.443 -4.081,-2.49 -4.813,-3.789 -5.232,-5.314 l -8.37,-32.688 -6.634,25.049 c -0.669,2.094 -1.235,3.767 -1.737,5.062 -0.606,1.489 -1.213,2.534 -1.82,3.12 -1.402,1.464 -3.076,2.408 -5.064,2.867 -0.356,0.041 -0.732,0.105 -1.171,0.146 l -1.842,0 c -0.377,-0.041 -0.753,-0.105 -1.088,-0.146 -2.03,-0.377 -3.746,-1.319 -5.148,-2.867 -0.608,-0.586 -1.235,-1.631 -1.862,-3.12 -0.523,-1.295 -1.131,-2.968 -1.758,-5.062 l -6.57,-25.049 -8.371,32.582 -0.648,1.945 c -0.67,1.088 -1.423,1.926 -2.282,2.469 -1.359,0.881 -3.201,1.402 -5.523,1.57 -2.385,0.063 -3.662,0.022 -3.83,-0.105 l 15.129,-56.916 c 1.36,-0.104 2.762,-0.084 4.226,0.105 1.11,0.104 2.178,0.502 3.203,1.192 0.565,0.502 1.088,0.984 1.569,1.465 0.439,0.357 0.796,0.795 1.109,1.277 0.356,0.502 0.711,1.088 1.005,1.758 0.92,2.385 1.8,4.771 2.657,7.156 l 7.429,28.815 0.104,0.125 c 0.041,0.355 0.209,0.65 0.482,0.9 0.229,0.187 0.46,0.293 0.712,0.355 0.125,0.127 0.25,0.168 0.375,0.168 0.043,0 0.189,-0.041 0.355,-0.168 0.19,-0.062 0.42,-0.168 0.651,-0.355 0.251,-0.25 0.439,-0.545 0.564,-0.9 l 0.084,-0.125 7.323,-28.815 c 0.879,-2.385 1.801,-4.771 2.762,-7.156 0.252,-0.67 0.607,-1.256 1.025,-1.758 0.293,-0.482 0.628,-0.92 1.027,-1.277 0.544,-0.481 1.067,-0.963 1.548,-1.465 1.025,-0.69 2.113,-1.088 3.285,-1.192 1.424,-0.189 2.825,-0.209 4.228,-0.105 L 6.759,0.564 C 4.52,0.627 2.26,0.439 0,0" /></g><g
         transform="translate(222.77658,261.62978)"
         id="g2993"><path
           id="path2995"
           style="fill:#ffcc00;fill-opacity:1;fill-rule:nonzero;stroke:none"
           d="m 0,0 -4.535,0.006 c -1.059,0 -2.116,0.004 -3.174,0.004 -2.51,0.004 -4.825,-1.914 -6.598,-3.436 -1.724,-1.484 -3.203,-3.281 -4.611,-5.064 -0.508,1.388 -1.172,2.754 -1.863,3.998 -0.905,1.775 -2.677,3.486 -4.664,3.9 -1.006,0.211 -2.133,0.11 -3.155,0.11 -0.884,0.002 -3.401,0 -3.401,0 0,0 -2.517,0.002 -3.401,0 -1.022,0 -2.148,0.101 -3.154,-0.11 -1.987,-0.414 -3.76,-2.125 -4.665,-3.9 -0.691,-1.244 -1.355,-2.61 -1.861,-3.998 -1.41,1.783 -2.889,3.58 -4.613,5.064 -1.772,1.522 -4.086,3.44 -6.596,3.436 -1.06,0 -2.117,-0.004 -3.176,-0.004 -1.512,-0.002 -3.022,-0.004 -4.535,-0.006 -1.101,-0.004 -3.537,0.283 -2.961,-1.506 0.141,-0.437 0.632,-0.824 0.912,-1.187 0.318,-0.412 0.636,-0.828 0.91,-1.272 0.442,-0.705 0.869,-1.424 1.28,-2.148 0.992,-1.75 1.828,-3.594 2.811,-5.352 2.166,-3.879 4.481,-7.668 7.282,-11.129 2.067,-2.551 4.563,-5.129 7.653,-6.394 -2.334,-4.336 -4.655,-8.676 -6.981,-13.014 -2.011,-3.752 -4.025,-7.486 -6.147,-11.176 -0.103,-0.177 -0.206,-0.355 -0.302,-0.535 -0.281,-0.527 -0.678,-1.26 -0.676,-1.865 0.003,-1.197 1.782,-1.235 2.631,-1.24 0.918,-0.006 1.84,0.019 2.758,0.029 1.596,0.018 3.193,0.037 4.789,0.055 0.945,0.011 1.904,-0.026 2.847,0.064 2.393,0.231 4.581,1.428 5.995,3.389 0.458,0.636 4.751,7.677 6.487,10.521 0.656,1.076 2.713,4.293 2.713,4.293 0,0 2.058,-3.217 2.714,-4.293 1.736,-2.844 6.029,-9.885 6.487,-10.521 1.413,-1.961 3.601,-3.158 5.995,-3.389 0.942,-0.09 1.902,-0.053 2.846,-0.064 1.596,-0.018 3.192,-0.037 4.789,-0.055 0.92,-0.01 1.84,-0.035 2.758,-0.029 0.849,0.005 2.629,0.043 2.631,1.24 0.003,0.605 -0.393,1.338 -0.675,1.865 -0.097,0.18 -0.2,0.358 -0.303,0.535 -2.12,3.69 -4.134,7.424 -6.146,11.176 -2.327,4.338 -4.649,8.678 -6.982,13.014 3.09,1.265 5.586,3.843 7.653,6.394 2.802,3.461 5.116,7.25 7.283,11.129 0.982,1.758 1.818,3.602 2.81,5.352 0.412,0.724 0.838,1.443 1.28,2.148 0.275,0.444 0.593,0.86 0.91,1.272 0.281,0.363 0.771,0.75 0.913,1.187 C 3.538,0.283 1.102,-0.004 0,0" /></g><g
         transform="translate(-7.1602343e-4,73.050682)"
         id="g2997"><g
           clip-path="url(#clipPath3001)"
           id="g2999"><g
             id="g3005"><g
               id="g3007"><g
                 id="g3013"><g
                   id="g3015"><path
                     id="path3025"
                     style="fill:url(#linearGradient3365);stroke:none"
                     d="m 219.644,172.052 c -0.396,-0.967 -0.716,-1.885 -1.294,-2.698 1.13,1.631 1.494,2.563 1.294,2.698" /></g></g></g></g></g></g><g
         transform="translate(-7.1602343e-4,73.050682)"
         id="g3027"><g
           id="g3029"><g
             id="g3035"><g
               id="g3037"><path
                 id="path3047"
                 style="fill:url(#linearGradient3367);stroke:none"
                 d="m 222.853,183.376 c -1.274,-2.889 -3.665,-5.72 -7.093,-8.491 l 0,0 c -3.429,-2.763 -9.258,-5.493 -17.428,-8.157 l 0,0 c -7.878,-2.574 -13.668,-5.563 -17.391,-8.995 l 0,0 c -1.764,-1.609 -3.007,-2.722 -3.722,-3.312 l 0,0 c -0.167,-0.168 -0.95,-0.988 -2.323,-2.508 l 0,0 c -1.664,-1.873 -3.427,-4.111 -5.269,-6.717 l 0,0 c -1.337,-1.889 -2.326,-3.306 -2.981,-4.235 l 0,0 c -1.019,-1.863 -2.052,-3.717 -3.111,-5.56 l 0,0 c -0.103,-0.178 -0.207,-0.355 -0.303,-0.535 l 0,0 c -0.281,-0.527 -0.678,-1.259 -0.676,-1.865 l 0,0 c 0.003,-0.925 1.065,-1.158 1.94,-1.218 l 0,0 c 0.166,0.002 0.341,0.009 0.525,0.021 l 0,0 4.176,0 c 1.179,0.014 2.359,0.028 3.537,0.041 l 0,0 c 0.261,0.002 0.524,0.002 0.788,0.001 l 0,0 c 0.686,-0.001 1.378,-0.002 2.059,0.063 l 0,0 c 2.394,0.231 4.581,1.428 5.995,3.389 l 0,0 c 0.444,0.616 4.486,7.242 6.316,10.241 l 0,0 0.996,1.782 0.122,0.013 c 0.816,1.29 1.767,2.778 1.767,2.778 l 0,0 c 0,0 2.057,-3.217 2.713,-4.293 l 0,0 c 1.736,-2.843 6.029,-9.885 6.487,-10.521 l 0,0 c 1.413,-1.961 3.601,-3.158 5.996,-3.389 l 0,0 c 0.171,-0.016 0.343,-0.028 0.516,-0.037 l 0,0 c -0.036,0.024 -0.074,0.048 -0.114,0.071 l 0,0 c 0.241,-0.045 0.486,-0.071 0.736,-0.092 l 0,0 c 0.307,-0.006 0.613,-0.005 0.92,-0.005 l 0,0 c 0.262,0.001 0.525,0.001 0.787,-0.001 l 0,0 c 1.179,-0.013 2.358,-0.027 3.538,-0.041 l 0,0 4.944,0 c 0.817,0.088 1.695,0.357 1.696,1.197 l 0,0 c 0.003,0.606 -0.392,1.338 -0.675,1.865 l 0,0 c -0.096,0.18 -0.2,0.357 -0.302,0.535 l 0,0 c -2.121,3.689 -4.134,7.425 -6.147,11.176 l 0,0 c -2.327,4.338 -4.649,8.678 -6.982,13.014 l 0,0 c 3.09,1.265 5.587,3.844 7.653,6.394 l 0,0 c 2.3,2.841 4.271,5.903 6.102,9.054 l 0,0 c -0.051,0.042 -0.078,0.071 -0.075,0.083 l 0,0 c 0.364,0.592 0.756,1.211 1.107,1.873 l 0,0 c 0.07,0.098 0.139,0.168 0.169,0.265 l 0,0 c 0.303,0.523 0.601,1.047 0.904,1.593 l 0,0 c 0.62,1.21 1.218,2.433 1.887,3.613 l 0,0 c 0.096,0.169 0.192,0.337 0.29,0.505 l 0,0 c 0.243,0.463 0.487,0.932 0.733,1.409 l 0,0 c -0.078,0.037 -0.154,0.076 -0.23,0.119 l 0,0 c -0.193,-0.379 -0.385,-0.75 -0.577,-1.123" /></g></g></g></g><g
         transform="translate(222.77658,261.62978)"
         id="g3057"><path
           id="path3059"
           style="fill:none;stroke:#000000;stroke-width:0.523;stroke-linecap:round;stroke-linejoin:round;stroke-miterlimit:10;stroke-opacity:1;stroke-dasharray:none"
           d="m 0,0 -4.535,0.006 c -1.059,0 -2.116,0.004 -3.174,0.004 -2.51,0.004 -4.825,-1.914 -6.598,-3.436 -1.724,-1.484 -3.203,-3.281 -4.611,-5.064 -0.508,1.388 -1.172,2.754 -1.863,3.998 -0.905,1.775 -2.677,3.486 -4.664,3.9 -1.006,0.211 -2.133,0.11 -3.155,0.11 -0.884,0.002 -3.401,0 -3.401,0 0,0 -2.517,0.002 -3.401,0 -1.022,0 -2.148,0.101 -3.154,-0.11 -1.987,-0.414 -3.76,-2.125 -4.665,-3.9 -0.691,-1.244 -1.355,-2.61 -1.861,-3.998 -1.41,1.783 -2.889,3.58 -4.613,5.064 -1.772,1.522 -4.086,3.44 -6.596,3.436 -1.06,0 -2.117,-0.004 -3.176,-0.004 -1.512,-0.002 -3.022,-0.004 -4.535,-0.006 -1.101,-0.004 -3.537,0.283 -2.961,-1.506 0.141,-0.437 0.632,-0.824 0.912,-1.187 0.318,-0.412 0.636,-0.828 0.91,-1.272 0.442,-0.705 0.869,-1.424 1.28,-2.148 0.992,-1.75 1.828,-3.594 2.811,-5.352 2.166,-3.879 4.481,-7.668 7.282,-11.129 2.067,-2.551 4.563,-5.129 7.653,-6.394 -2.334,-4.336 -4.655,-8.676 -6.981,-13.014 -2.011,-3.752 -4.025,-7.486 -6.147,-11.176 -0.103,-0.177 -0.206,-0.355 -0.302,-0.535 -0.281,-0.527 -0.678,-1.26 -0.676,-1.865 0.003,-1.197 1.782,-1.235 2.631,-1.24 0.918,-0.006 1.84,0.019 2.758,0.029 1.596,0.018 3.193,0.037 4.789,0.055 0.945,0.011 1.904,-0.026 2.847,0.064 2.393,0.231 4.581,1.428 5.995,3.389 0.458,0.636 4.751,7.677 6.487,10.521 0.656,1.076 2.713,4.293 2.713,4.293 0,0 2.058,-3.217 2.714,-4.293 1.736,-2.844 6.029,-9.885 6.487,-10.521 1.413,-1.961 3.601,-3.158 5.995,-3.389 0.942,-0.09 1.902,-0.053 2.846,-0.064 1.596,-0.018 3.192,-0.037 4.789,-0.055 0.92,-0.01 1.84,-0.035 2.758,-0.029 0.849,0.005 2.629,0.043 2.631,1.24 0.003,0.605 -0.393,1.338 -0.675,1.865 -0.097,0.18 -0.2,0.358 -0.303,0.535 -2.12,3.69 -4.134,7.424 -6.146,11.176 -2.327,4.338 -4.649,8.678 -6.982,13.014 3.09,1.265 5.586,3.843 7.653,6.394 2.802,3.461 5.116,7.25 7.283,11.129 0.982,1.758 1.818,3.602 2.81,5.352 0.412,0.724 0.838,1.443 1.28,2.148 0.275,0.444 0.593,0.86 0.91,1.272 0.281,0.363 0.771,0.75 0.913,1.187 C 3.538,0.283 1.102,-0.004 0,0 z" /></g><g
         transform="translate(196.02078,251.65708)"
         id="g3061"><path
           id="path3063"
           style="fill:#000000;fill-opacity:1;fill-rule:nonzero;stroke:none"
           d="M 0,0 C 0.234,0.035 0.438,0.072 0.483,0.082 0.707,0.127 0.926,0.195 1.14,0.271 1.721,0.473 2.078,0.746 2.336,0.951 2.531,1.104 2.68,1.271 2.732,1.377 1.33,1.35 0.287,1.357 -0.404,1.412 -0.59,1.441 -0.729,0.953 -0.82,-0.025 -0.828,-0.102 -0.375,-0.053 0,0" /></g><g
         transform="translate(192.16918,244.80558)"
         id="g3065"><path
           id="path3067"
           style="fill:#000000;fill-opacity:1;fill-rule:nonzero;stroke:none"
           d="M 0,0 -0.001,-0.002 C 0,0 0.001,0 0.002,0 L 0,0 z M -2.994,-0.002 C -2.995,-0.002 -2.996,0 -2.996,0 L -3,0 c 0.002,0 0.004,0 0.006,-0.002 m -0.229,0.318 c -0.016,-0.019 -0.026,-0.043 -0.026,-0.07 0,-0.029 0.014,-0.06 0.039,-0.08 C -3.145,0.107 -3.076,0.049 -2.996,0 -2.588,-0.285 -2.086,-0.434 -1.5,-0.443 -0.904,-0.434 -0.429,-0.293 0,0 0.075,0.047 0.152,0.102 0.224,0.166 0.277,0.211 0.303,0.279 0.264,0.324 0.225,0.369 0.156,0.379 0.084,0.328 0.02,0.273 -0.05,0.221 -0.115,0.18 l -0.004,0 C -0.513,-0.09 -0.951,-0.219 -1.5,-0.227 -2.039,-0.219 -2.504,-0.082 -2.876,0.178 -2.877,0.18 -2.879,0.18 -2.881,0.18 -2.947,0.225 -3.007,0.275 -3.07,0.328 -3.115,0.367 -3.184,0.363 -3.223,0.316" /></g><g
         transform="translate(195.08618,246.05948)"
         id="g3069"><path
           id="path3071"
           style="fill:#000000;fill-opacity:1;fill-rule:nonzero;stroke:none"
           d="m 0,0 c -0.005,0.008 -0.011,0.029 -0.014,0.035 0,0 0.01,-0.023 0.017,-0.037 C 0.002,0 0.001,0 0,0 M 3.3,3.916 C 3.138,4.242 2.958,4.477 2.767,4.617 2.144,5.078 1.2,5.082 0.638,4.529 0.376,4.271 0.185,3.957 0.041,3.621 -0.286,2.859 -0.531,1.996 -0.476,1.158 -0.45,0.779 -0.317,0.389 -0.053,0.111 c 0.322,-0.34 0.782,-0.472 1.226,-0.564 0.439,-0.09 0.953,-0.158 1.365,0.06 0.475,0.254 0.675,0.84 0.805,1.321 C 3.511,1.545 3.667,2.205 3.603,2.85 3.567,3.207 3.461,3.596 3.3,3.916" /></g><g
         transform="translate(196.83328,248.41108)"
         id="g3073"><path
           id="path3075"
           style="fill:#ffffff;fill-opacity:1;fill-rule:nonzero;stroke:none"
           d="M 0,0 C 0.352,0.119 0.582,0.186 0.684,0.193 0.185,0.156 -0.073,0.359 -0.119,0.793 L -0.212,1.699 C -0.239,1.117 -0.305,0.746 -0.434,0.553 -0.517,0.434 -0.59,0.35 -0.674,0.314 L -0.969,0.221 C -1.088,0.186 -1.209,0.146 -1.31,0.146 -0.766,0.193 -0.471,0.055 -0.424,-0.248 -0.35,-0.684 -0.305,-0.969 -0.268,-1.107 -0.258,-0.434 -0.166,-0.066 0,0" /></g><g
         transform="translate(197.49728,247.06528)"
         id="g3077"><path
           id="path3079"
           style="fill:#ffffff;fill-opacity:1;fill-rule:nonzero;stroke:none"
           d="M 0,0 -0.055,0.561 C -0.072,0.201 -0.109,-0.029 -0.184,-0.148 -0.23,-0.215 -0.285,-0.27 -0.341,-0.299 l -0.175,-0.055 c -0.074,-0.017 -0.148,-0.044 -0.213,-0.044 0.333,0.027 0.518,-0.055 0.553,-0.241 0.037,-0.267 0.074,-0.453 0.094,-0.525 0,0.416 0.056,0.637 0.166,0.674 0.212,0.072 0.35,0.119 0.415,0.119 C 0.193,-0.391 0.028,-0.26 0,0" /></g><g
         transform="translate(186.12228,251.63178)"
         id="g3081"><path
           id="path3083"
           style="fill:#000000;fill-opacity:1;fill-rule:nonzero;stroke:none"
           d="M 0,0 C -0.093,0.979 -0.23,1.467 -0.416,1.438 -1.107,1.383 -2.15,1.375 -3.553,1.402 -3.501,1.297 -3.352,1.129 -3.156,0.977 -2.898,0.771 -2.543,0.498 -1.961,0.297 -1.746,0.221 -1.526,0.152 -1.305,0.107 -1.259,0.098 -1.055,0.061 -0.821,0.025 -0.445,-0.027 0.006,-0.076 0,0" /></g><g
         transform="translate(186.23368,246.05748)"
         id="g3085"><path
           id="path3087"
           style="fill:#000000;fill-opacity:1;fill-rule:nonzero;stroke:none"
           d="M 0,0 C 0.006,0.014 0.016,0.037 0.016,0.037 0.014,0.031 0.006,0.01 0.002,0.002 0.002,0.002 0,0.002 0,0 m -3.6,2.852 c -0.064,-0.645 0.091,-1.305 0.259,-1.922 0.13,-0.481 0.33,-1.067 0.804,-1.321 0.414,-0.218 0.928,-0.15 1.367,-0.06 0.443,0.092 0.904,0.224 1.225,0.564 C 0.32,0.391 0.453,0.781 0.479,1.16 0.533,1.998 0.289,2.861 -0.038,3.623 -0.183,3.959 -0.374,4.273 -0.636,4.531 -1.197,5.084 -2.141,5.08 -2.764,4.619 -2.955,4.479 -3.135,4.244 -3.297,3.918 -3.459,3.598 -3.565,3.209 -3.6,2.852" /></g><g
         transform="translate(184.48858,248.41108)"
         id="g3089"><path
           id="path3091"
           style="fill:#ffffff;fill-opacity:1;fill-rule:nonzero;stroke:none"
           d="m 0,0 c -0.351,0.119 -0.581,0.186 -0.683,0.193 0.498,-0.037 0.757,0.166 0.803,0.6 L 0.212,1.699 C 0.239,1.117 0.304,0.746 0.435,0.553 0.518,0.434 0.591,0.35 0.674,0.314 L 0.969,0.221 C 1.089,0.186 1.208,0.146 1.311,0.146 0.767,0.193 0.471,0.055 0.425,-0.248 0.351,-0.684 0.304,-0.969 0.269,-1.107 0.259,-0.434 0.166,-0.066 0,0" /></g><g
         transform="translate(183.82348,247.06528)"
         id="g3093"><path
           id="path3095"
           style="fill:#ffffff;fill-opacity:1;fill-rule:nonzero;stroke:none"
           d="M 0,0 0.057,0.561 C 0.074,0.201 0.111,-0.029 0.186,-0.148 0.232,-0.215 0.287,-0.27 0.342,-0.299 L 0.518,-0.354 C 0.592,-0.371 0.665,-0.398 0.729,-0.398 0.398,-0.371 0.213,-0.453 0.176,-0.639 0.139,-0.906 0.102,-1.092 0.084,-1.164 c 0,0.416 -0.057,0.637 -0.167,0.674 -0.212,0.072 -0.35,0.119 -0.415,0.119 C -0.193,-0.391 -0.027,-0.26 0,0" /></g></g></g></svg>